<?xml version="1.0" encoding="UTF-8" standalone="no"?>
<!DOCTYPE svg PUBLIC "-//W3C//DTD SVG 1.1//EN" "http://www.w3.org/Graphics/SVG/1.1/DTD/svg11.dtd">
<svg width="100%" height="100%" viewBox="0 0 928 403" version="1.1" xmlns="http://www.w3.org/2000/svg" xmlns:xlink="http://www.w3.org/1999/xlink" xml:space="preserve" xmlns:serif="http://www.serif.com/" style="fill-rule:evenodd;clip-rule:evenodd;stroke-linejoin:round;stroke-miterlimit:2;">
    <g transform="matrix(1,0,0,1,0,-290.725)">
        <g id="With-tagline" serif:id="With tagline" transform="matrix(1,0,0,1.36401,4.29913,-345.539)">
            <rect x="-4.299" y="466.465" width="927.286" height="295.046" style="fill:none;"/>
            <clipPath id="_clip1">
                <rect x="-4.299" y="466.465" width="927.286" height="295.046"/>
            </clipPath>
            <g clip-path="url(#_clip1)">
                <g transform="matrix(1,0,0,0.733131,-724.132,276.667)">
                    <g transform="matrix(0.972514,-0.232843,0.232843,0.972514,-95.2244,190.055)">
                        <text x="757.406px" y="498.371px" style="font-family:'orangejuice', 'orange juice';font-size:229.167px;fill:rgb(20,71,78);">P</text>
                    </g>
                    <g transform="matrix(0.987831,-0.155528,0.155528,0.987831,-63.0943,139.959)">
                        <text x="862.873px" y="473.189px" style="font-family:'orangejuice', 'orange juice';font-size:229.167px;fill:rgb(20,71,78);">L</text>
                    </g>
                    <g transform="matrix(0.996881,-0.0789157,0.0789157,0.996881,-32.9835,77.4221)">
                        <text x="963.053px" y="456.018px" style="font-family:'orangejuice', 'orange juice';font-size:229.167px;fill:rgb(20,71,78);">A</text>
                    </g>
                    <g transform="matrix(0.999999,-0.00121582,0.00121582,0.999999,-0.538637,1.37257)">
                        <text x="1128.65px" y="443.708px" style="font-family:'orangejuice', 'orange juice';font-size:229.167px;fill:rgb(20,71,78);">N</text>
                    </g>
                    <g transform="matrix(0.997616,0.0690159,-0.0690159,0.997616,33.5679,-85.3874)">
                        <text x="1252.52px" y="443.106px" style="font-family:'orangejuice', 'orange juice';font-size:229.167px;fill:rgb(20,71,78);">T</text>
                    </g>
                    <g transform="matrix(0.989623,0.143686,-0.143686,0.989623,79.6433,-195.847)">
                        <text x="1395.77px" y="453.488px" style="font-family:'orangejuice', 'orange juice';font-size:229.167px;fill:rgb(20,71,78);">L</text>
                    </g>
                    <g transform="matrix(0.975567,0.219701,-0.219701,0.975567,139.957,-319.594)">
                        <text x="1506.89px" y="469.455px" style="font-family:'orangejuice', 'orange juice';font-size:229.167px;fill:rgb(20,71,78);">E</text>
                    </g>
                </g>
                <g>
                    <g transform="matrix(1,0,0,0.733131,-724.132,351.663)">
                        <g transform="matrix(0.976018,-0.21769,0.21769,0.976018,-84.9694,193.904)">
                            <text x="837.568px" y="482.594px" style="font-family:'orangejuice', 'orange juice';font-size:75px;fill:rgb(20,71,78);">t</text>
                        </g>
                        <g transform="matrix(0.981269,-0.192642,0.192642,0.981269,-75.5392,175.652)">
                            <text x="865.496px" y="476.275px" style="font-family:'orangejuice', 'orange juice';font-size:75px;fill:rgb(20,71,78);">h</text>
                        </g>
                        <g transform="matrix(0.986418,-0.164252,0.164252,0.986418,-64.6125,155.21)">
                            <text x="906.227px" y="468.307px" style="font-family:'orangejuice', 'orange juice';font-size:75px;fill:rgb(20,71,78);">e</text>
                        </g>
                        <g transform="matrix(0.991626,-0.129146,0.129146,0.991626,-51.4356,127.267)">
                            <text x="955.605px" y="460.241px" style="font-family:'orangejuice', 'orange juice';font-size:75px;fill:rgb(20,71,78);">p</text>
                        </g>
                        <g transform="matrix(0.993839,-0.110833,0.110833,0.993839,-44.2675,113.378)">
                            <text x="997.676px" y="454.866px" style="font-family:'orangejuice', 'orange juice';font-size:75px;fill:rgb(20,71,78);">l</text>
                        </g>
                        <g transform="matrix(0.995628,-0.0934039,0.0934039,0.995628,-37.8767,96.663)">
                            <text x="1013.69px" y="452.96px" style="font-family:'orangejuice', 'orange juice';font-size:75px;fill:rgb(20,71,78);">a</text>
                        </g>
                        <g transform="matrix(0.997481,-0.0709319,0.0709319,0.997481,-29.206,75.9104)">
                            <text x="1054.24px" y="449.184px" style="font-family:'orangejuice', 'orange juice';font-size:75px;fill:rgb(20,71,78);">n</text>
                        </g>
                        <g transform="matrix(0.9986,-0.0528943,0.0528943,0.9986,-22.1152,58.1135)">
                            <text x="1086.85px" y="446.866px" style="font-family:'orangejuice', 'orange juice';font-size:75px;fill:rgb(20,71,78);">t</text>
                        </g>
                        <g transform="matrix(0.999489,-0.0319587,0.0319587,0.999489,-13.6385,36.3223)">
                            <text x="1129.43px" y="444.806px" style="font-family:'orangejuice', 'orange juice';font-size:75px;fill:rgb(20,71,78);">i</text>
                        </g>
                        <g transform="matrix(0.999893,-0.0146472,0.0146472,0.999893,-6.3828,16.8246)">
                            <text x="1145.4px" y="444.158px" style="font-family:'orangejuice', 'orange juice';font-size:75px;fill:rgb(20,71,78);">d</text>
                        </g>
                        <g transform="matrix(0.999966,0.00827483,-0.00827483,0.999966,3.71086,-9.8286)">
                            <text x="1189.61px" y="443.529px" style="font-family:'orangejuice', 'orange juice';font-size:75px;fill:rgb(20,71,78);">e</text>
                        </g>
                        <g transform="matrix(0.999613,0.0278142,-0.0278142,0.999613,12.8189,-33.9274)">
                            <text x="1225.96px" y="443.823px" style="font-family:'orangejuice', 'orange juice';font-size:75px;fill:rgb(20,71,78);">n</text>
                        </g>
                        <g transform="matrix(0.998965,0.0454896,-0.0454896,0.998965,21.5338,-56.7982)">
                            <text x="1258.72px" y="444.734px" style="font-family:'orangejuice', 'orange juice';font-size:75px;fill:rgb(20,71,78);">t</text>
                        </g>
                        <g transform="matrix(0.998244,0.0592291,-0.0592291,0.998244,28.6868,-75.5452)">
                            <text x="1288.7px" y="446.14px" style="font-family:'orangejuice', 'orange juice';font-size:75px;fill:rgb(20,71,78);">i</text>
                        </g>
                        <g transform="matrix(0.997091,0.0762145,-0.0762145,0.997091,37.8731,-98.2491)">
                            <text x="1306.17px" y="447.08px" style="font-family:'orangejuice', 'orange juice';font-size:75px;fill:rgb(20,71,78);">ﬁ</text>
                        </g>
                        <g transform="matrix(0.994935,0.100525,-0.100525,0.994935,52.0785,-133.105)">
                            <text x="1346.79px" y="450.203px" style="font-family:'orangejuice', 'orange juice';font-size:75px;fill:rgb(20,71,78);">c</text>
                        </g>
                        <g transform="matrix(0.992479,0.122413,-0.122413,0.992479,65.8853,-165.488)">
                            <text x="1379.75px" y="453.453px" style="font-family:'orangejuice', 'orange juice';font-size:75px;fill:rgb(20,71,78);">a</text>
                        </g>
                        <g transform="matrix(0.989523,0.144378,-0.144378,0.989523,81.0392,-200.066)">
                            <text x="1418.97px" y="458.326px" style="font-family:'orangejuice', 'orange juice';font-size:75px;fill:rgb(20,71,78);">t</text>
                        </g>
                        <g transform="matrix(0.987105,0.160071,-0.160071,0.987105,92.7452,-225.922)">
                            <text x="1448.66px" y="462.703px" style="font-family:'orangejuice', 'orange juice';font-size:75px;fill:rgb(20,71,78);">i</text>
                        </g>
                        <g transform="matrix(0.983903,0.178705,-0.178705,0.983903,106.701,-254.234)">
                            <text x="1464.55px" y="465.159px" style="font-family:'orangejuice', 'orange juice';font-size:75px;fill:rgb(20,71,78);">o</text>
                        </g>
                        <g transform="matrix(0.978931,0.20419,-0.20419,0.978931,127.994,-296.676)">
                            <text x="1501.63px" y="471.898px" style="font-family:'orangejuice', 'orange juice';font-size:75px;fill:rgb(20,71,78);">n</text>
                        </g>
                    </g>
                    <g transform="matrix(1,0,0,0.733131,-724.132,395.651)">
                        <g transform="matrix(0.996856,-0.0792382,0.0792382,0.996856,-32.4311,83.7236)">
                            <text x="1038.73px" y="450.505px" style="font-family:'orangejuice', 'orange juice';font-size:75px;fill:rgb(20,71,78);">c</text>
                        </g>
                        <g transform="matrix(0.998328,-0.0578111,0.0578111,0.998328,-24.0873,62.7971)">
                            <text x="1073.3px" y="447.705px" style="font-family:'orangejuice', 'orange juice';font-size:75px;fill:rgb(20,71,78);">h</text>
                        </g>
                        <g transform="matrix(0.999412,-0.0342807,0.0342807,0.999412,-14.6135,38.4249)">
                            <text x="1113.25px" y="445.376px" style="font-family:'orangejuice', 'orange juice';font-size:75px;fill:rgb(20,71,78);">a</text>
                        </g>
                        <g transform="matrix(0.999825,-0.0187034,0.0187034,0.999825,-8.10467,21.633)">
                            <text x="1152.48px" y="444.104px" style="font-family:'orangejuice', 'orange juice';font-size:75px;fill:rgb(20,71,78);">l</text>
                        </g>
                        <g transform="matrix(0.99996,-0.00893684,0.00893684,0.99996,-3.91928,10.471)">
                            <text x="1169.68px" y="443.78px" style="font-family:'orangejuice', 'orange juice';font-size:75px;fill:rgb(20,71,78);">l</text>
                        </g>
                        <g transform="matrix(0.999982,0.00595787,-0.00595787,0.999982,2.66362,-7.05522)">
                            <text x="1185.51px" y="443.545px" style="font-family:'orangejuice', 'orange juice';font-size:75px;fill:rgb(20,71,78);">e</text>
                        </g>
                        <g transform="matrix(0.999675,0.0254943,-0.0254943,0.999675,11.7104,-31.0074)">
                            <text x="1221.91px" y="443.756px" style="font-family:'orangejuice', 'orange juice';font-size:75px;fill:rgb(20,71,78);">n</text>
                        </g>
                        <g transform="matrix(0.998884,0.0472356,-0.0472356,0.998884,22.4026,-58.8434)">
                            <text x="1256.25px" y="444.588px" style="font-family:'orangejuice', 'orange juice';font-size:75px;fill:rgb(20,71,78);">g</text>
                        </g>
                        <g transform="matrix(0.997505,0.0705968,-0.0705968,0.997505,34.7603,-90.4642)">
                            <text x="1297.2px" y="446.531px" style="font-family:'orangejuice', 'orange juice';font-size:75px;fill:rgb(20,71,78);">e</text>
                        </g>
                    </g>
                </g>
            </g>
        </g>
    </g>
</svg>
