<?xml version="1.0" encoding="UTF-8" standalone="no"?><!DOCTYPE svg PUBLIC "-//W3C//DTD SVG 1.1//EN" "http://www.w3.org/Graphics/SVG/1.1/DTD/svg11.dtd"><svg width="100%" height="100%" viewBox="0 0 928 258" version="1.1" xmlns="http://www.w3.org/2000/svg" xmlns:xlink="http://www.w3.org/1999/xlink" xml:space="preserve" xmlns:serif="http://www.serif.com/" style="fill-rule:evenodd;clip-rule:evenodd;stroke-linejoin:round;stroke-miterlimit:2;"><rect id="Artboard3" x="0" y="0" width="927.286" height="257.579" style="fill:none;"/><clipPath id="_clip1"><rect x="0" y="0" width="927.286" height="257.579"/></clipPath><g clip-path="url(#_clip1)"><g transform="matrix(1,0,0,1,-719.833,-258.887)"><g transform="matrix(0.972514,-0.232843,0.232843,0.972514,-95.2244,190.055)"><text x="757.406px" y="498.371px" style="font-family:'orangejuice', 'orange juice';font-size:229.167px;fill:#14474e;">P</text></g><g transform="matrix(0.987831,-0.155528,0.155528,0.987831,-63.0943,139.959)"><text x="862.873px" y="473.189px" style="font-family:'orangejuice', 'orange juice';font-size:229.167px;fill:#14474e;">L</text></g><g transform="matrix(0.996881,-0.0789157,0.0789157,0.996881,-32.9835,77.4221)"><text x="963.053px" y="456.018px" style="font-family:'orangejuice', 'orange juice';font-size:229.167px;fill:#14474e;">A</text></g><g transform="matrix(0.999999,-0.00121582,0.00121582,0.999999,-0.538637,1.37257)"><text x="1128.65px" y="443.708px" style="font-family:'orangejuice', 'orange juice';font-size:229.167px;fill:#14474e;">N</text></g><g transform="matrix(0.997616,0.0690159,-0.0690159,0.997616,33.5679,-85.3874)"><text x="1252.52px" y="443.106px" style="font-family:'orangejuice', 'orange juice';font-size:229.167px;fill:#14474e;">T</text></g><g transform="matrix(0.989623,0.143686,-0.143686,0.989623,79.6433,-195.847)"><text x="1395.77px" y="453.488px" style="font-family:'orangejuice', 'orange juice';font-size:229.167px;fill:#14474e;">L</text></g><g transform="matrix(0.975567,0.219701,-0.219701,0.975567,139.957,-319.594)"><text x="1506.89px" y="469.455px" style="font-family:'orangejuice', 'orange juice';font-size:229.167px;fill:#14474e;">E</text></g></g></g></svg>